<svg id="Layer_1" data-name="Layer 1" xmlns="http://www.w3.org/2000/svg" viewBox="0 0 512 512"><title>Avatar</title><circle style="fill:#C5FF00;" cx="256" cy="127.19" r="89.19"/><path style="fill:#C5FF00;" d="M256,229.64c-94.55,0-172.36,77.8-172.36,172.36H428.36C428.36,307.45,350.55,229.64,256,229.64Z"/><path style="fill:#C5FF00;" d="M256,20a236.07,236.07,0,0,1,91.86,453.46A236.07,236.07,0,0,1,164.14,38.54,234.5,234.5,0,0,1,256,20m0-20C114.62,0,0,114.62,0,256S114.62,512,256,512,512,397.38,512,256,397.38,0,256,0Z"/></svg>