<svg xmlns="http://www.w3.org/2000/svg" xmlns:xlink="http://www.w3.org/1999/xlink" width="16" height="15" viewBox="0 0 16 15">
  <defs>
    <clipPath id="clip-path">
      <rect width="16" height="15" fill="none"/>
    </clipPath>
  </defs>
  <g id="Symbol_20_1" data-name="Symbol 20 – 1" clip-path="url(#clip-path)">
    <path id="Path_2" data-name="Path 2" d="M1.944,6.806A4.814,4.814,0,0,1,6.806,1.944a4.814,4.814,0,0,1,4.861,4.861,4.814,4.814,0,0,1-4.861,4.861A4.814,4.814,0,0,1,1.944,6.806ZM13.9,15.264A.962.962,0,1,0,15.264,13.9L12.25,10.889a6.657,6.657,0,0,0,1.361-4.083A6.764,6.764,0,0,0,6.806,0,6.764,6.764,0,0,0,0,6.806a6.764,6.764,0,0,0,6.806,6.806,6.657,6.657,0,0,0,4.083-1.361Z" fill="#4a4a4a"/>
  </g>
</svg>
